<svg width="35" height="35" viewBox="0 0 35 35" fill="none" xmlns="http://www.w3.org/2000/svg">
<rect width="35" height="35" rx="17.5" transform="matrix(1 0 0 -1 0 35)" fill="#A3CB38"/>
<path d="M18.75 15C19.3467 15 19.919 15.2371 20.341 15.659C20.7629 16.081 21 16.6533 21 17.25C21 17.4489 21.079 17.6397 21.2197 17.7803C21.3603 17.921 21.5511 18 21.75 18C21.9489 18 22.1397 17.921 22.2803 17.7803C22.421 17.6397 22.5 17.4489 22.5 17.25C22.5 16.2554 22.1049 15.3016 21.4017 14.5983C20.6984 13.8951 19.7446 13.5 18.75 13.5C18.5511 13.5 18.3603 13.579 18.2197 13.7197C18.079 13.8603 18 14.0511 18 14.25C18 14.4489 18.079 14.6397 18.2197 14.7803C18.3603 14.921 18.5511 15 18.75 15Z" fill="white"/>
<path d="M18.75 12C20.1424 12 21.4777 12.5531 22.4623 13.5377C23.4469 14.5223 24 15.8576 24 17.25C24 17.4489 24.079 17.6397 24.2197 17.7803C24.3603 17.921 24.5511 18 24.75 18C24.9489 18 25.1397 17.921 25.2803 17.7803C25.421 17.6397 25.5 17.4489 25.5 17.25C25.5 15.4598 24.7888 13.7429 23.523 12.477C22.2571 11.2112 20.5402 10.5 18.75 10.5C18.5511 10.5 18.3603 10.579 18.2197 10.7197C18.079 10.8603 18 11.0511 18 11.25C18 11.4489 18.079 11.6397 18.2197 11.7803C18.3603 11.921 18.5511 12 18.75 12ZM25.3125 20.9325C25.2712 20.8121 25.2 20.7042 25.1056 20.6189C25.0111 20.5336 24.8965 20.4738 24.7725 20.445L20.2725 19.4175C20.1504 19.3898 20.0232 19.3931 19.9027 19.4272C19.7822 19.4613 19.6721 19.525 19.5825 19.6125C19.4775 19.71 19.47 19.7175 18.9825 20.6475C17.3649 19.9021 16.0687 18.6006 15.33 16.98C16.2825 16.5 16.29 16.5 16.3875 16.3875C16.475 16.2979 16.5387 16.1878 16.5728 16.0673C16.6069 15.9468 16.6102 15.8196 16.5825 15.6975L15.555 11.25C15.5262 11.126 15.4664 11.0114 15.3811 10.9169C15.2958 10.8225 15.1879 10.7513 15.0675 10.71C14.8923 10.6474 14.7115 10.6022 14.5275 10.575C14.3379 10.531 14.1445 10.5059 13.95 10.5C13.035 10.5 12.1575 10.8635 11.5105 11.5105C10.8635 12.1575 10.5 13.035 10.5 13.95C10.504 17.012 11.7221 19.9475 13.8873 22.1127C16.0525 24.2779 18.988 25.496 22.05 25.5C22.5031 25.5 22.9517 25.4108 23.3703 25.2374C23.7888 25.064 24.1692 24.8099 24.4895 24.4895C24.8099 24.1692 25.064 23.7888 25.2374 23.3703C25.4108 22.9517 25.5 22.5031 25.5 22.05C25.5002 21.8591 25.4852 21.6685 25.455 21.48C25.4235 21.2937 25.3758 21.1105 25.3125 20.9325Z" fill="white"/>
</svg>
