<svg width="35" height="35" viewBox="0 0 35 35" fill="none" xmlns="http://www.w3.org/2000/svg">
<rect width="35" height="35" rx="17.5" transform="matrix(1 0 0 -1 0 35)" fill="url(#paint0_linear)"/>
<path d="M17.5 6.5625C23.6614 6.5625 28.4375 11.0757 28.4375 17.1719C28.4375 23.268 23.6614 27.7812 17.5 27.7812C16.3933 27.7812 15.3315 27.6351 14.3339 27.3608C14.14 27.3074 13.9338 27.3225 13.7497 27.4038L11.5788 28.3621C11.0109 28.6128 10.3699 28.2089 10.3509 27.5884L10.2913 25.6426C10.284 25.4031 10.1761 25.1789 9.99748 25.0191C7.86931 23.1159 6.5625 20.3605 6.5625 17.1719C6.5625 11.0757 11.3386 6.5625 17.5 6.5625ZM10.9321 20.2745C10.6238 20.7637 11.225 21.315 11.6857 20.9654L15.1368 18.3462C15.3703 18.169 15.6929 18.1681 15.9273 18.3439L18.4828 20.2605C19.2496 20.8356 20.344 20.6337 20.8551 19.8228L24.068 14.7255C24.3762 14.2363 23.7749 13.685 23.3143 14.0346L19.8632 16.6538C19.6297 16.831 19.3071 16.8319 19.0726 16.656L16.5173 14.7395C15.7504 14.1644 14.656 14.3663 14.145 15.1772L10.9321 20.2745Z" fill="white"/>
<defs>
<linearGradient id="paint0_linear" x1="17.4958" y1="35.0001" x2="17.4958" y2="-0.0010306" gradientUnits="userSpaceOnUse">
<stop stop-color="#01B7F8"/>
<stop offset="1" stop-color="#046BF5"/>
</linearGradient>
</defs>
</svg>
