<svg width="269" height="61" viewBox="0 0 269 61" fill="none" xmlns="http://www.w3.org/2000/svg">
<circle cx="43" cy="59" r="1.5" stroke="#0A51EF"/>
<circle cx="99" cy="10" r="1.5" stroke="#0A51EF"/>
<path d="M72.0534 51.2586L73.8754 49.1702L75.0725 50.1147L76.2696 51.0593L77.3722 50.006L78.4749 48.9528L80.7413 50.8479L82.9467 48.7414" stroke="#0A51EF"/>
<path d="M0.978252 2.7063L3.3732 1.31157L4.20469 2.58977L5.03618 3.86798L6.4181 3.22341L7.80003 2.57885L9.34004 5.10005L12.1039 3.81093" stroke="#0A51EF"/>
<path d="M202.105 4L202.105 8M204 6.10526L200 6.10526" stroke="#0A51EF"/>
<path d="M267.105 2L267.105 6M269 4.10526L265 4.10526" stroke="#0A51EF"/>
<path d="M193.105 10L193.105 14M195 12.1053L191 12.1053" stroke="#0A51EF"/>
</svg>
